G04 ---------------------------- Layer name :BOTTOM SOLDER LAYER*
G04 EasyEDA v5.8.22, Sun, 09 Dec 2018 14:58:16 GMT*
G04 d740bffd687a459e962a3d983056e966*
G04 Gerber Generator version 0.2*
G04 Scale: 100 percent, Rotated: No, Reflected: No *
G04 Dimensions in inches *
G04 leading zeros omitted , absolute positions ,2 integer and 4 decimal *
%FSLAX24Y24*%
%MOIN*%
G90*
G70D02*

%ADD22C,0.084000*%
%ADD23C,0.118000*%
%ADD24R,0.088000X0.088000*%
%ADD25C,0.088000*%
%ADD26R,0.068000X0.067055*%
%ADD27C,0.067055*%

%LPD*%
G54D22*
G01X3000Y17200D03*
G01X3000Y16200D03*
G01X3000Y15200D03*
G01X3000Y14200D03*
G01X3000Y13200D03*
G01X3000Y12200D03*
G01X3000Y11200D03*
G01X3000Y10200D03*
G01X3000Y9200D03*
G01X3000Y8200D03*
G01X3000Y7200D03*
G01X3000Y6200D03*
G01X3000Y5200D03*
G01X3000Y4200D03*
G01X3000Y3200D03*
G01X12000Y17200D03*
G01X12000Y16200D03*
G01X12000Y15200D03*
G01X12000Y14200D03*
G01X12000Y13200D03*
G01X12000Y12200D03*
G01X12000Y11200D03*
G01X12000Y10200D03*
G01X12000Y9200D03*
G01X12000Y8200D03*
G01X12000Y7200D03*
G01X12000Y6200D03*
G01X12000Y5200D03*
G01X12000Y4200D03*
G01X12000Y3200D03*
G54D23*
G01X25695Y11138D03*
G01X20104Y13500D03*
G01X20891Y15861D03*
G01X20891Y11138D03*
G01X25695Y15861D03*
G01X25695Y4038D03*
G01X20104Y6400D03*
G01X20891Y8761D03*
G01X20891Y4038D03*
G01X25695Y8761D03*
G54D24*
G01X30200Y11630D03*
G54D25*
G01X30200Y13600D03*
G01X30200Y15569D03*
G54D24*
G01X30200Y4530D03*
G54D25*
G01X30200Y6500D03*
G01X30200Y8469D03*
G54D24*
G01X28719Y19100D03*
G54D25*
G01X30680Y19100D03*
G54D24*
G01X23819Y19100D03*
G54D25*
G01X25780Y19100D03*
G54D26*
G01X16400Y6400D03*
G54D27*
G01X17400Y6400D03*
G54D26*
G01X16400Y13500D03*
G54D27*
G01X17400Y13500D03*
G54D22*
G01X1300Y15200D03*
G01X1300Y16200D03*
G01X1300Y14200D03*
G01X1300Y13200D03*
G01X1300Y12200D03*
G01X1300Y11200D03*
G01X1300Y10200D03*
G01X1300Y9200D03*
G01X1300Y8200D03*
G01X1300Y7200D03*
G01X1300Y6200D03*
G01X1300Y5200D03*
G01X1300Y4200D03*
G01X1300Y3200D03*
G01X1300Y17200D03*
G01X13900Y17200D03*
G01X13900Y16200D03*
G01X13900Y15200D03*
G01X13900Y14200D03*
G01X13900Y13200D03*
G01X13900Y12200D03*
G01X13900Y11200D03*
G01X13900Y10200D03*
G01X13900Y9200D03*
G01X13900Y8200D03*
G01X13900Y7200D03*
G01X13900Y6200D03*
G01X13900Y5200D03*
G01X13900Y4200D03*
G01X13900Y3200D03*
M00*
M02*
