;PTH Drill file created by EasyEDA 
M48
INCH,LZ,00.0000
;Holesize 1 = 0.012 INCH
T01C0.012
;Holesize 2 = 0.032 INCH
T02C0.032
;Holesize 3 = 0.036 INCH
T03C0.036
;Holesize 4 = 0.039 INCH
T04C0.039
;Holesize 5 = 0.046 INCH
T05C0.046
;Holesize 6 = 0.060 INCH
T06C0.060
%
G05
G90
T01
X+028228Y+019100
X+024310Y+019100
T02
X+002998Y+017200G85X+003001Y+017200
X+002998Y+016200G85X+003001Y+016200
X+002998Y+015200G85X+003001Y+015200
X+002998Y+014200G85X+003001Y+014200
X+002998Y+013200G85X+003001Y+013200
X+002998Y+012200G85X+003001Y+012200
X+002998Y+011200G85X+003001Y+011200
X+002998Y+010200G85X+003001Y+010200
X+002998Y+009200G85X+003001Y+009200
X+002998Y+008200G85X+003001Y+008200
X+002998Y+007200G85X+003001Y+007200
X+002998Y+006200G85X+003001Y+006200
X+002998Y+005200G85X+003001Y+005200
X+002998Y+004200G85X+003001Y+004200
X+002998Y+003200G85X+003001Y+003200
X+011998Y+017200G85X+012001Y+017200
X+011998Y+016200G85X+012001Y+016200
X+011998Y+015200G85X+012001Y+015200
X+011998Y+014200G85X+012001Y+014200
X+011998Y+013200G85X+012001Y+013200
X+011998Y+012200G85X+012001Y+012200
X+011998Y+011200G85X+012001Y+011200
X+011998Y+010200G85X+012001Y+010200
X+011998Y+009200G85X+012001Y+009200
X+011998Y+008200G85X+012001Y+008200
X+011998Y+007200G85X+012001Y+007200
X+011998Y+006200G85X+012001Y+006200
X+011998Y+005200G85X+012001Y+005200
X+011998Y+004200G85X+012001Y+004200
X+011998Y+003200G85X+012001Y+003200
T03
X+001300Y+015200
X+001300Y+016200
X+001300Y+014200
X+001300Y+013200
X+001300Y+012200
X+001300Y+011200
X+001300Y+010200
X+001300Y+009200
X+001300Y+008200
X+001300Y+007200
X+001300Y+006200
X+001300Y+005200
X+001300Y+004200
X+001300Y+003200
X+001300Y+017200
X+013900Y+017200
X+013900Y+016200
X+013900Y+015200
X+013900Y+014200
X+013900Y+013200
X+013900Y+012200
X+013900Y+011200
X+013900Y+010200
X+013900Y+009200
X+013900Y+008200
X+013900Y+007200
X+013900Y+006200
X+013900Y+005200
X+013900Y+004200
X+013900Y+003200
T04
X+016400Y+006400
X+017400Y+006400
X+016400Y+013500
X+017400Y+013500
T05
X+030200Y+011630
X+030200Y+013600
X+030200Y+015569
X+030200Y+004530
X+030200Y+006500
X+030200Y+008469
X+028719Y+019100
X+030680Y+019100
X+023819Y+019100
X+025780Y+019100
T06
X+025695Y+011138
X+020104Y+013500
X+020891Y+015861
X+020891Y+011138
X+025695Y+015861
X+025695Y+004038
X+020104Y+006400
X+020891Y+008761
X+020891Y+004038
X+025695Y+008761
M30
