G04 ---------------------------- Layer name :TOP SILK LAYER*
G04 EasyEDA v5.8.22, Sun, 09 Dec 2018 14:58:16 GMT*
G04 d740bffd687a459e962a3d983056e966*
G04 Gerber Generator version 0.2*
G04 Scale: 100 percent, Rotated: No, Reflected: No *
G04 Dimensions in inches *
G04 leading zeros omitted , absolute positions ,2 integer and 4 decimal *
%FSLAX24Y24*%
%MOIN*%
G90*
G70D02*

%ADD10C,0.010000*%
%ADD19C,0.011811*%
%ADD20C,0.007000*%
%ADD21C,0.008000*%

%LPD*%
G54D19*
G01X25722Y11176D02*
G01X25722Y13376D01*
G01X26671Y16621D02*
G01X26675Y10469D01*
G01X19261Y10469D01*
G01X19269Y16614D01*
G01X21922Y14101D02*
G01X22646Y14101D01*
G01X22646Y13052D01*
G01X21246Y13052D01*
G01X21246Y14101D01*
G01X21997Y14101D01*
G01X21997Y15901D01*
G01X20918Y15901D01*
G01X20918Y11176D02*
G01X21922Y11176D01*
G01X21922Y13052D01*
G01X20131Y13538D02*
G01X20131Y14967D01*
G01X23531Y14967D01*
G01X23531Y13786D01*
G01X23541Y13776D01*
G01X25122Y13776D01*
G01X25322Y13776D01*
G01X25336Y13767D02*
G01X25947Y13362D01*
G54D10*
G01X19269Y16633D02*
G01X19265Y16633D01*
G01X26683Y16634D01*
G01X26683Y16633D01*
G01X25694Y15901D02*
G01X25694Y14295D01*
G54D19*
G01X25722Y4076D02*
G01X25722Y6276D01*
G01X26671Y9521D02*
G01X26675Y3369D01*
G01X19261Y3369D01*
G01X19269Y9514D01*
G01X21922Y7001D02*
G01X22646Y7001D01*
G01X22646Y5952D01*
G01X21246Y5952D01*
G01X21246Y7001D01*
G01X21997Y7001D01*
G01X21997Y8801D01*
G01X20918Y8801D01*
G01X20918Y4076D02*
G01X21922Y4076D01*
G01X21922Y5952D01*
G01X20131Y6438D02*
G01X20131Y7867D01*
G01X23531Y7867D01*
G01X23531Y6686D01*
G01X23541Y6676D01*
G01X25122Y6676D01*
G01X25322Y6676D01*
G01X25336Y6667D02*
G01X25947Y6262D01*
G54D10*
G01X19269Y9533D02*
G01X19265Y9533D01*
G01X26683Y9534D01*
G01X26683Y9533D01*
G01X25694Y8801D02*
G01X25694Y7195D01*
G01X31800Y10550D02*
G01X28600Y10550D01*
G01X28600Y16650D01*
G01X31800Y16650D01*
G01X31800Y10550D01*
G01X31200Y10650D02*
G01X29200Y10650D01*
G01X29200Y16550D01*
G01X31200Y16550D01*
G01X31200Y10650D01*
G01X31800Y3450D02*
G01X28600Y3450D01*
G01X28600Y9550D01*
G01X31800Y9550D01*
G01X31800Y3450D01*
G01X31200Y3550D02*
G01X29200Y3550D01*
G01X29200Y9450D01*
G01X31200Y9450D01*
G01X31200Y3550D01*
G01X27650Y17500D02*
G01X27650Y20700D01*
G01X31750Y20700D01*
G01X31750Y17500D01*
G01X27650Y17500D01*
G01X27750Y18100D02*
G01X27750Y20100D01*
G01X31650Y20100D01*
G01X31650Y18100D01*
G01X27750Y18100D01*
G01X22750Y17500D02*
G01X22750Y20700D01*
G01X26850Y20700D01*
G01X26850Y17500D01*
G01X22750Y17500D01*
G01X22850Y18100D02*
G01X22850Y20100D01*
G01X26750Y20100D01*
G01X26750Y18100D01*
G01X22850Y18100D01*
G01X17800Y6800D02*
G01X17800Y6000D01*
G01X17700Y6951D02*
G01X17700Y5848D01*
G01X17800Y13900D02*
G01X17800Y13100D01*
G01X17700Y14051D02*
G01X17700Y12948D01*
G54D20*
G01X7500Y20444D02*
G01X7500Y20138D01*
G01X7519Y20077D01*
G01X7560Y20036D01*
G01X7622Y20015D01*
G01X7664Y20015D01*
G01X7725Y20036D01*
G01X7765Y20077D01*
G01X7785Y20138D01*
G01X7785Y20444D01*
G01X7942Y20342D02*
G01X7942Y20363D01*
G01X7961Y20405D01*
G01X7982Y20425D01*
G01X8023Y20444D01*
G01X8105Y20444D01*
G01X8146Y20425D01*
G01X8167Y20405D01*
G01X8186Y20363D01*
G01X8186Y20323D01*
G01X8167Y20282D01*
G01X8126Y20219D01*
G01X7921Y20015D01*
G01X8207Y20015D01*
G01X22904Y17344D02*
G01X22904Y16915D01*
G01X22904Y17344D02*
G01X23088Y17344D01*
G01X23149Y17325D01*
G01X23170Y17305D01*
G01X23190Y17263D01*
G01X23190Y17223D01*
G01X23170Y17182D01*
G01X23149Y17161D01*
G01X23088Y17140D01*
G01X22904Y17140D01*
G01X23047Y17140D02*
G01X23190Y16915D01*
G01X23325Y17344D02*
G01X23325Y16915D01*
G01X23325Y17344D02*
G01X23591Y17344D01*
G01X23325Y17140D02*
G01X23489Y17140D01*
G01X23325Y16915D02*
G01X23591Y16915D01*
G01X23726Y17344D02*
G01X23726Y16915D01*
G01X23726Y16915D02*
G01X23972Y16915D01*
G01X24270Y17344D02*
G01X24107Y16915D01*
G01X24270Y17344D02*
G01X24434Y16915D01*
G01X24168Y17059D02*
G01X24373Y17059D01*
G01X24569Y17344D02*
G01X24733Y17140D01*
G01X24733Y16915D01*
G01X24896Y17344D02*
G01X24733Y17140D01*
G01X25031Y17263D02*
G01X25072Y17284D01*
G01X25134Y17344D01*
G01X25134Y16915D01*
G01X22904Y10244D02*
G01X22904Y9815D01*
G01X22904Y10244D02*
G01X23088Y10244D01*
G01X23149Y10225D01*
G01X23170Y10205D01*
G01X23190Y10163D01*
G01X23190Y10123D01*
G01X23170Y10082D01*
G01X23149Y10061D01*
G01X23088Y10040D01*
G01X22904Y10040D01*
G01X23047Y10040D02*
G01X23190Y9815D01*
G01X23325Y10244D02*
G01X23325Y9815D01*
G01X23325Y10244D02*
G01X23591Y10244D01*
G01X23325Y10040D02*
G01X23489Y10040D01*
G01X23325Y9815D02*
G01X23591Y9815D01*
G01X23726Y10244D02*
G01X23726Y9815D01*
G01X23726Y9815D02*
G01X23972Y9815D01*
G01X24270Y10244D02*
G01X24107Y9815D01*
G01X24270Y10244D02*
G01X24434Y9815D01*
G01X24168Y9959D02*
G01X24373Y9959D01*
G01X24569Y10244D02*
G01X24733Y10040D01*
G01X24733Y9815D01*
G01X24896Y10244D02*
G01X24733Y10040D01*
G01X25052Y10142D02*
G01X25052Y10163D01*
G01X25072Y10205D01*
G01X25093Y10225D01*
G01X25134Y10244D01*
G01X25215Y10244D01*
G01X25256Y10225D01*
G01X25277Y10205D01*
G01X25297Y10163D01*
G01X25297Y10123D01*
G01X25277Y10082D01*
G01X25236Y10019D01*
G01X25031Y9815D01*
G01X25318Y9815D01*
G01X30405Y10244D02*
G01X30405Y9917D01*
G01X30384Y9857D01*
G01X30364Y9836D01*
G01X30322Y9815D01*
G01X30281Y9815D01*
G01X30240Y9836D01*
G01X30219Y9857D01*
G01X30200Y9917D01*
G01X30200Y9959D01*
G01X30539Y10163D02*
G01X30580Y10184D01*
G01X30642Y10244D01*
G01X30642Y9815D01*
G01X30405Y3144D02*
G01X30405Y2817D01*
G01X30384Y2757D01*
G01X30364Y2736D01*
G01X30322Y2715D01*
G01X30281Y2715D01*
G01X30240Y2736D01*
G01X30219Y2757D01*
G01X30200Y2817D01*
G01X30200Y2859D01*
G01X30560Y3042D02*
G01X30560Y3063D01*
G01X30580Y3105D01*
G01X30601Y3125D01*
G01X30642Y3144D01*
G01X30723Y3144D01*
G01X30764Y3125D01*
G01X30785Y3105D01*
G01X30805Y3063D01*
G01X30805Y3023D01*
G01X30785Y2982D01*
G01X30743Y2919D01*
G01X30539Y2715D01*
G01X30826Y2715D01*
G01X26855Y19305D02*
G01X27181Y19305D01*
G01X27243Y19284D01*
G01X27264Y19263D01*
G01X27284Y19223D01*
G01X27284Y19182D01*
G01X27264Y19140D01*
G01X27243Y19119D01*
G01X27181Y19100D01*
G01X27140Y19100D01*
G01X26855Y19480D02*
G01X26855Y19705D01*
G01X27018Y19582D01*
G01X27018Y19644D01*
G01X27039Y19684D01*
G01X27059Y19705D01*
G01X27119Y19726D01*
G01X27160Y19726D01*
G01X27222Y19705D01*
G01X27264Y19665D01*
G01X27284Y19603D01*
G01X27284Y19542D01*
G01X27264Y19480D01*
G01X27243Y19459D01*
G01X27202Y19440D01*
G01X21955Y19305D02*
G01X22281Y19305D01*
G01X22343Y19284D01*
G01X22364Y19263D01*
G01X22384Y19223D01*
G01X22384Y19182D01*
G01X22364Y19140D01*
G01X22343Y19119D01*
G01X22281Y19100D01*
G01X22240Y19100D01*
G01X21955Y19644D02*
G01X22240Y19440D01*
G01X22240Y19746D01*
G01X21955Y19644D02*
G01X22384Y19644D01*
G01X16192Y8144D02*
G01X16192Y7715D01*
G01X16192Y7715D02*
G01X16436Y7715D01*
G01X16572Y8144D02*
G01X16572Y7715D01*
G01X16572Y8144D02*
G01X16838Y8144D01*
G01X16572Y7940D02*
G01X16735Y7940D01*
G01X16572Y7715D02*
G01X16838Y7715D01*
G01X16972Y8144D02*
G01X16972Y7715D01*
G01X16972Y8144D02*
G01X17117Y8144D01*
G01X17177Y8125D01*
G01X17218Y8084D01*
G01X17239Y8042D01*
G01X17260Y7982D01*
G01X17260Y7880D01*
G01X17239Y7817D01*
G01X17218Y7776D01*
G01X17177Y7736D01*
G01X17117Y7715D01*
G01X16972Y7715D01*
G01X17414Y8042D02*
G01X17414Y8063D01*
G01X17435Y8105D01*
G01X17456Y8125D01*
G01X17497Y8144D01*
G01X17578Y8144D01*
G01X17619Y8125D01*
G01X17639Y8105D01*
G01X17660Y8063D01*
G01X17660Y8023D01*
G01X17639Y7982D01*
G01X17598Y7919D01*
G01X17394Y7715D01*
G01X17681Y7715D01*
G01X16376Y15244D02*
G01X16376Y14815D01*
G01X16376Y14815D02*
G01X16621Y14815D01*
G01X16756Y15244D02*
G01X16756Y14815D01*
G01X16756Y15244D02*
G01X17022Y15244D01*
G01X16756Y15040D02*
G01X16919Y15040D01*
G01X16756Y14815D02*
G01X17022Y14815D01*
G01X17156Y15244D02*
G01X17156Y14815D01*
G01X17156Y15244D02*
G01X17301Y15244D01*
G01X17361Y15225D01*
G01X17402Y15184D01*
G01X17422Y15142D01*
G01X17443Y15082D01*
G01X17443Y14980D01*
G01X17422Y14917D01*
G01X17402Y14876D01*
G01X17361Y14836D01*
G01X17301Y14815D01*
G01X17156Y14815D01*
G01X17578Y15163D02*
G01X17619Y15184D01*
G01X17681Y15244D01*
G01X17681Y14815D01*
G54D21*
G01X32200Y8899D02*
G01X32200Y8136D01*
G01X32200Y8899D02*
G01X32709Y8136D01*
G01X32709Y8899D02*
G01X32709Y8136D01*
G01X33167Y8899D02*
G01X33094Y8863D01*
G01X33022Y8790D01*
G01X32985Y8718D01*
G01X32948Y8608D01*
G01X32948Y8427D01*
G01X32985Y8318D01*
G01X33022Y8245D01*
G01X33094Y8172D01*
G01X33167Y8136D01*
G01X33313Y8136D01*
G01X33385Y8172D01*
G01X33457Y8245D01*
G01X33494Y8318D01*
G01X33531Y8427D01*
G01X33531Y8608D01*
G01X33494Y8718D01*
G01X33457Y8790D01*
G01X33385Y8863D01*
G01X33313Y8899D01*
G01X33167Y8899D01*
G01X32300Y16036D02*
G01X32300Y15273D01*
G01X32300Y16036D02*
G01X32809Y15273D01*
G01X32809Y16036D02*
G01X32809Y15273D01*
G01X33267Y16036D02*
G01X33194Y16000D01*
G01X33122Y15926D01*
G01X33085Y15855D01*
G01X33048Y15744D01*
G01X33048Y15563D01*
G01X33085Y15455D01*
G01X33122Y15382D01*
G01X33194Y15309D01*
G01X33267Y15273D01*
G01X33413Y15273D01*
G01X33485Y15309D01*
G01X33557Y15382D01*
G01X33594Y15455D01*
G01X33631Y15563D01*
G01X33631Y15744D01*
G01X33594Y15855D01*
G01X33557Y15926D01*
G01X33485Y16000D01*
G01X33413Y16036D01*
G01X33267Y16036D01*
G01X32200Y4836D02*
G01X32200Y4073D01*
G01X32200Y4836D02*
G01X32709Y4073D01*
G01X32709Y4836D02*
G01X32709Y4073D01*
G01X33494Y4655D02*
G01X33457Y4726D01*
G01X33385Y4800D01*
G01X33313Y4836D01*
G01X33167Y4836D01*
G01X33094Y4800D01*
G01X33022Y4726D01*
G01X32985Y4655D01*
G01X32948Y4544D01*
G01X32948Y4363D01*
G01X32985Y4255D01*
G01X33022Y4182D01*
G01X33094Y4109D01*
G01X33167Y4073D01*
G01X33313Y4073D01*
G01X33385Y4109D01*
G01X33457Y4182D01*
G01X33494Y4255D01*
G01X32200Y11936D02*
G01X32200Y11173D01*
G01X32200Y11936D02*
G01X32709Y11173D01*
G01X32709Y11936D02*
G01X32709Y11173D01*
G01X33494Y11755D02*
G01X33457Y11826D01*
G01X33385Y11900D01*
G01X33313Y11936D01*
G01X33167Y11936D01*
G01X33094Y11900D01*
G01X33022Y11826D01*
G01X32985Y11755D01*
G01X32948Y11644D01*
G01X32948Y11463D01*
G01X32985Y11355D01*
G01X33022Y11282D01*
G01X33094Y11209D01*
G01X33167Y11173D01*
G01X33313Y11173D01*
G01X33385Y11209D01*
G01X33457Y11282D01*
G01X33494Y11355D01*
G01X32200Y13836D02*
G01X32200Y13073D01*
G01X32200Y13836D02*
G01X32455Y13836D01*
G01X32564Y13800D01*
G01X32635Y13726D01*
G01X32672Y13655D01*
G01X32709Y13544D01*
G01X32709Y13363D01*
G01X32672Y13255D01*
G01X32635Y13182D01*
G01X32564Y13109D01*
G01X32455Y13073D01*
G01X32200Y13073D01*
G01X32948Y13690D02*
G01X33022Y13726D01*
G01X33131Y13836D01*
G01X33131Y13073D01*
G01X32200Y6799D02*
G01X32200Y6036D01*
G01X32200Y6799D02*
G01X32455Y6799D01*
G01X32564Y6763D01*
G01X32635Y6690D01*
G01X32672Y6618D01*
G01X32709Y6508D01*
G01X32709Y6327D01*
G01X32672Y6218D01*
G01X32635Y6145D01*
G01X32564Y6072D01*
G01X32455Y6036D01*
G01X32200Y6036D01*
G01X32985Y6618D02*
G01X32985Y6654D01*
G01X33022Y6727D01*
G01X33057Y6763D01*
G01X33131Y6799D01*
G01X33276Y6799D01*
G01X33348Y6763D01*
G01X33385Y6727D01*
G01X33422Y6654D01*
G01X33422Y6581D01*
G01X33385Y6508D01*
G01X33313Y6399D01*
G01X32948Y6036D01*
G01X33457Y6036D01*
G01X24609Y21590D02*
G01X24535Y21663D01*
G01X24427Y21699D01*
G01X24281Y21699D01*
G01X24172Y21663D01*
G01X24100Y21590D01*
G01X24100Y21518D01*
G01X24135Y21445D01*
G01X24172Y21408D01*
G01X24244Y21372D01*
G01X24464Y21299D01*
G01X24535Y21263D01*
G01X24572Y21227D01*
G01X24609Y21154D01*
G01X24609Y21045D01*
G01X24535Y20972D01*
G01X24427Y20936D01*
G01X24281Y20936D01*
G01X24172Y20972D01*
G01X24100Y21045D01*
G01X24848Y21554D02*
G01X24922Y21590D01*
G01X25031Y21699D01*
G01X25031Y20936D01*
G01X29509Y21590D02*
G01X29435Y21663D01*
G01X29327Y21699D01*
G01X29181Y21699D01*
G01X29072Y21663D01*
G01X29000Y21590D01*
G01X29000Y21518D01*
G01X29035Y21445D01*
G01X29072Y21408D01*
G01X29144Y21372D01*
G01X29364Y21299D01*
G01X29435Y21263D01*
G01X29472Y21227D01*
G01X29509Y21154D01*
G01X29509Y21045D01*
G01X29435Y20972D01*
G01X29327Y20936D01*
G01X29181Y20936D01*
G01X29072Y20972D01*
G01X29000Y21045D01*
G01X29785Y21518D02*
G01X29785Y21554D01*
G01X29822Y21627D01*
G01X29857Y21663D01*
G01X29931Y21699D01*
G01X30076Y21699D01*
G01X30148Y21663D01*
G01X30185Y21627D01*
G01X30222Y21554D01*
G01X30222Y21481D01*
G01X30185Y21408D01*
G01X30113Y21299D01*
G01X29748Y20936D01*
G01X30257Y20936D01*
G01X16244Y1818D02*
G01X16209Y1890D01*
G01X16135Y1963D01*
G01X16064Y1999D01*
G01X15918Y1999D01*
G01X15844Y1963D01*
G01X15772Y1890D01*
G01X15735Y1818D01*
G01X15700Y1708D01*
G01X15700Y1527D01*
G01X15735Y1418D01*
G01X15772Y1345D01*
G01X15844Y1272D01*
G01X15918Y1236D01*
G01X16064Y1236D01*
G01X16135Y1272D01*
G01X16209Y1345D01*
G01X16244Y1418D01*
G01X16244Y1527D01*
G01X16064Y1527D02*
G01X16244Y1527D01*
G01X16922Y1745D02*
G01X16922Y1236D01*
G01X16922Y1636D02*
G01X16848Y1708D01*
G01X16776Y1745D01*
G01X16667Y1745D01*
G01X16594Y1708D01*
G01X16522Y1636D01*
G01X16485Y1527D01*
G01X16485Y1454D01*
G01X16522Y1345D01*
G01X16594Y1272D01*
G01X16667Y1236D01*
G01X16776Y1236D01*
G01X16848Y1272D01*
G01X16922Y1345D01*
G01X17161Y1745D02*
G01X17161Y1236D01*
G01X17161Y1527D02*
G01X17197Y1636D01*
G01X17271Y1708D01*
G01X17343Y1745D01*
G01X17452Y1745D01*
G01X18128Y1745D02*
G01X18128Y1236D01*
G01X18128Y1636D02*
G01X18056Y1708D01*
G01X17984Y1745D01*
G01X17875Y1745D01*
G01X17802Y1708D01*
G01X17728Y1636D01*
G01X17693Y1527D01*
G01X17693Y1454D01*
G01X17728Y1345D01*
G01X17802Y1272D01*
G01X17875Y1236D01*
G01X17984Y1236D01*
G01X18056Y1272D01*
G01X18128Y1345D01*
G01X18805Y1745D02*
G01X18805Y1163D01*
G01X18768Y1054D01*
G01X18732Y1018D01*
G01X18660Y981D01*
G01X18551Y981D01*
G01X18477Y1018D01*
G01X18805Y1636D02*
G01X18732Y1708D01*
G01X18660Y1745D01*
G01X18551Y1745D01*
G01X18477Y1708D01*
G01X18405Y1636D01*
G01X18368Y1527D01*
G01X18368Y1454D01*
G01X18405Y1345D01*
G01X18477Y1272D01*
G01X18551Y1236D01*
G01X18660Y1236D01*
G01X18732Y1272D01*
G01X18805Y1345D01*
G01X19044Y1527D02*
G01X19481Y1527D01*
G01X19481Y1599D01*
G01X19444Y1672D01*
G01X19409Y1708D01*
G01X19335Y1745D01*
G01X19227Y1745D01*
G01X19155Y1708D01*
G01X19081Y1636D01*
G01X19044Y1527D01*
G01X19044Y1454D01*
G01X19081Y1345D01*
G01X19155Y1272D01*
G01X19227Y1236D01*
G01X19335Y1236D01*
G01X19409Y1272D01*
G01X19481Y1345D01*
G01X20281Y1999D02*
G01X20281Y1236D01*
G01X20281Y1999D02*
G01X20535Y1999D01*
G01X20644Y1963D01*
G01X20718Y1890D01*
G01X20755Y1818D01*
G01X20790Y1708D01*
G01X20790Y1527D01*
G01X20755Y1418D01*
G01X20718Y1345D01*
G01X20644Y1272D01*
G01X20535Y1236D01*
G01X20281Y1236D01*
G01X21213Y1745D02*
G01X21139Y1708D01*
G01X21067Y1636D01*
G01X21031Y1527D01*
G01X21031Y1454D01*
G01X21067Y1345D01*
G01X21139Y1272D01*
G01X21213Y1236D01*
G01X21322Y1236D01*
G01X21394Y1272D01*
G01X21467Y1345D01*
G01X21503Y1454D01*
G01X21503Y1527D01*
G01X21467Y1636D01*
G01X21394Y1708D01*
G01X21322Y1745D01*
G01X21213Y1745D01*
G01X21925Y1745D02*
G01X21852Y1708D01*
G01X21780Y1636D01*
G01X21743Y1527D01*
G01X21743Y1454D01*
G01X21780Y1345D01*
G01X21852Y1272D01*
G01X21925Y1236D01*
G01X22035Y1236D01*
G01X22106Y1272D01*
G01X22180Y1345D01*
G01X22215Y1454D01*
G01X22215Y1527D01*
G01X22180Y1636D01*
G01X22106Y1708D01*
G01X22035Y1745D01*
G01X21925Y1745D01*
G01X22456Y1745D02*
G01X22456Y1236D01*
G01X22456Y1527D02*
G01X22493Y1636D01*
G01X22564Y1708D01*
G01X22638Y1745D01*
G01X22747Y1745D01*
G01X24093Y1818D02*
G01X24056Y1890D01*
G01X23984Y1963D01*
G01X23910Y1999D01*
G01X23764Y1999D01*
G01X23693Y1963D01*
G01X23619Y1890D01*
G01X23584Y1818D01*
G01X23547Y1708D01*
G01X23547Y1527D01*
G01X23584Y1418D01*
G01X23619Y1345D01*
G01X23693Y1272D01*
G01X23764Y1236D01*
G01X23910Y1236D01*
G01X23984Y1272D01*
G01X24056Y1345D01*
G01X24093Y1418D01*
G01X24514Y1745D02*
G01X24442Y1708D01*
G01X24368Y1636D01*
G01X24332Y1527D01*
G01X24332Y1454D01*
G01X24368Y1345D01*
G01X24442Y1272D01*
G01X24514Y1236D01*
G01X24623Y1236D01*
G01X24696Y1272D01*
G01X24768Y1345D01*
G01X24805Y1454D01*
G01X24805Y1527D01*
G01X24768Y1636D01*
G01X24696Y1708D01*
G01X24623Y1745D01*
G01X24514Y1745D01*
G01X25044Y1745D02*
G01X25044Y1236D01*
G01X25044Y1599D02*
G01X25155Y1708D01*
G01X25227Y1745D01*
G01X25335Y1745D01*
G01X25409Y1708D01*
G01X25444Y1599D01*
G01X25444Y1236D01*
G01X25794Y1999D02*
G01X25794Y1381D01*
G01X25831Y1272D01*
G01X25903Y1236D01*
G01X25976Y1236D01*
G01X25685Y1745D02*
G01X25939Y1745D01*
G01X26215Y1745D02*
G01X26215Y1236D01*
G01X26215Y1527D02*
G01X26252Y1636D01*
G01X26325Y1708D01*
G01X26397Y1745D01*
G01X26506Y1745D01*
G01X26928Y1745D02*
G01X26856Y1708D01*
G01X26784Y1636D01*
G01X26747Y1527D01*
G01X26747Y1454D01*
G01X26784Y1345D01*
G01X26856Y1272D01*
G01X26928Y1236D01*
G01X27038Y1236D01*
G01X27110Y1272D01*
G01X27184Y1345D01*
G01X27219Y1454D01*
G01X27219Y1527D01*
G01X27184Y1636D01*
G01X27110Y1708D01*
G01X27038Y1745D01*
G01X26928Y1745D01*
G01X27460Y1999D02*
G01X27460Y1236D01*
G01X27700Y1999D02*
G01X27700Y1236D01*
G01X27939Y1527D02*
G01X28376Y1527D01*
G01X28376Y1599D01*
G01X28339Y1672D01*
G01X28303Y1708D01*
G01X28231Y1745D01*
G01X28122Y1745D01*
G01X28048Y1708D01*
G01X27976Y1636D01*
G01X27939Y1527D01*
G01X27939Y1454D01*
G01X27976Y1345D01*
G01X28048Y1272D01*
G01X28122Y1236D01*
G01X28231Y1236D01*
G01X28303Y1272D01*
G01X28376Y1345D01*
G01X28615Y1745D02*
G01X28615Y1236D01*
G01X28615Y1527D02*
G01X28652Y1636D01*
G01X28725Y1708D01*
G01X28797Y1745D01*
G01X28906Y1745D01*
G54D10*
G75*
G01X31100Y11600D02*
G03X31100Y11600I-900J0D01*
G01*
G75*
G01X31100Y13600D02*
G03X31100Y13600I-900J0D01*
G01*
G75*
G01X31100Y15600D02*
G03X31100Y15600I-900J0D01*
G01*
G75*
G01X31100Y4500D02*
G03X31100Y4500I-900J0D01*
G01*
G75*
G01X31100Y6500D02*
G03X31100Y6500I-900J0D01*
G01*
G75*
G01X31100Y8500D02*
G03X31100Y8500I-900J0D01*
G01*
G75*
G01X29600Y19100D02*
G03X29600Y19100I-900J0D01*
G01*
G75*
G01X31600Y19100D02*
G03X31600Y19100I-900J0D01*
G01*
G75*
G01X24700Y19100D02*
G03X24700Y19100I-900J0D01*
G01*
G75*
G01X26700Y19100D02*
G03X26700Y19100I-900J0D01*
G01*
G75*
G01X17884Y6400D02*
G03X17884Y6400I-984J0D01*
G01*
G75*
G01X17884Y13500D02*
G03X17884Y13500I-984J0D01*
G01*
M00*
M02*
